# xmcd
#
# Track frame offsets: 
#        150
#        15862
#        29269
#        45202
#        61942
#        76987
#        93398
#        107153
#        123378
#        142129
#        156725
#        174693
#        193040
#        207714
#        221651
#        239624
#        255197
#        270689
#        283660
#        301411
#        317735
#
# Disc length: 4489 seconds
#
# Revision: 1
# Processed by: cddbd v1.5.2PL0 Copyright (c) Steve Scherf et al.
# Submitted via: ExactAudioCopyFreeDBPlugin 1.0
#
DISCID=32118715
DTITLE=Various Artist - Promo Only Country Radio February 2006
DYEAR=2006
DGENRE=Country
TTITLE0=Kenny Chesney - Living In Fast Forward (Album Version)
TTITLE1=Toby Keith - Get Drunk And Be Somebody
TTITLE2=Rascal Flatts - What Hurts The Most (Album Version)
TTITLE3=Gary Allan - Life Ain't Always Beautiful
TTITLE4=Ty England - Redneck Anthem
TTITLE5=Trent Wilman - On Again Tonight
TTITLE6=Neal McCoy - Last Of A Dying Breed
TTITLE7=Rodney Atkins - If You're Going Through Hell (Before The Devil
TTITLE7=Even Knows)
TTITLE8=Rhett Akins - Kiss My Country Ass
TTITLE9=Clint Black - Drinkin' Songs and Other Logic
TTITLE10=Hal Ketchum - Just This Side Of Heaven (Hal-Lelujah)
TTITLE11=Brice Long - Anywhere But Here
TTITLE12=John Pierce - I'd Still Have You
TTITLE13=BR549 - After The Hurricane
TTITLE14=Keith Bryant - Somebody
TTITLE15=Robinella - Break It Down Baby
TTITLE16=Aaron Russell - Let Ol' Sleeping Memories Lie
TTITLE17=Clyde Masten III - Man Enough To Cry
TTITLE18=Angel Nash - Livin' On Love
TTITLE19=Phil Ayoub - No Heart Ache
TTITLE20=Chute Nine - Hound Dog
EXTD=
EXTT0=
EXTT1=
EXTT2=
EXTT3=
EXTT4=
EXTT5=
EXTT6=
EXTT7=
EXTT8=
EXTT9=
EXTT10=
EXTT11=
EXTT12=
EXTT13=
EXTT14=
EXTT15=
EXTT16=
EXTT17=
EXTT18=
EXTT19=
EXTT20=
PLAYORDER=
